<mxfile host="app.diagrams.net" agent="Mozilla/5.0 (Windows NT 10.0; Win64; x64) AppleWebKit/537.36 (KHTML, like Gecko) Chrome/140.0.0.0 Safari/537.36" version="28.2.2">
  <diagram name="Page-1" id="pLNvWoD6DS-Ez_JNhXZ8">
    <mxGraphModel dx="1226" dy="661" grid="1" gridSize="10" guides="1" tooltips="1" connect="1" arrows="1" fold="1" page="1" pageScale="1" pageWidth="850" pageHeight="1100" math="0" shadow="0">
      <root>
        <mxCell id="0" />
        <mxCell id="1" parent="0" />
        <mxCell id="-JfjUyIMwX5SSRcEmjnT-12" value="" style="edgeStyle=orthogonalEdgeStyle;rounded=0;orthogonalLoop=1;jettySize=auto;html=1;" edge="1" parent="1" source="-JfjUyIMwX5SSRcEmjnT-1" target="-JfjUyIMwX5SSRcEmjnT-3">
          <mxGeometry relative="1" as="geometry" />
        </mxCell>
        <mxCell id="-JfjUyIMwX5SSRcEmjnT-1" value="plan" style="ellipse;whiteSpace=wrap;html=1;strokeWidth=2;fontSize=23;" vertex="1" parent="1">
          <mxGeometry x="320" y="40" width="150" height="90" as="geometry" />
        </mxCell>
        <mxCell id="-JfjUyIMwX5SSRcEmjnT-13" value="" style="edgeStyle=orthogonalEdgeStyle;rounded=0;orthogonalLoop=1;jettySize=auto;html=1;" edge="1" parent="1" source="-JfjUyIMwX5SSRcEmjnT-3" target="-JfjUyIMwX5SSRcEmjnT-4">
          <mxGeometry relative="1" as="geometry" />
        </mxCell>
        <mxCell id="-JfjUyIMwX5SSRcEmjnT-3" value="develop" style="ellipse;whiteSpace=wrap;html=1;fontSize=22;" vertex="1" parent="1">
          <mxGeometry x="320" y="160" width="150" height="90" as="geometry" />
        </mxCell>
        <mxCell id="-JfjUyIMwX5SSRcEmjnT-11" value="" style="edgeStyle=orthogonalEdgeStyle;rounded=0;orthogonalLoop=1;jettySize=auto;html=1;" edge="1" parent="1" source="-JfjUyIMwX5SSRcEmjnT-4">
          <mxGeometry relative="1" as="geometry">
            <mxPoint x="395" y="420" as="targetPoint" />
          </mxGeometry>
        </mxCell>
        <mxCell id="-JfjUyIMwX5SSRcEmjnT-4" value="built" style="ellipse;whiteSpace=wrap;html=1;fontSize=22;" vertex="1" parent="1">
          <mxGeometry x="320" y="280" width="150" height="100" as="geometry" />
        </mxCell>
        <mxCell id="-JfjUyIMwX5SSRcEmjnT-18" value="" style="edgeStyle=orthogonalEdgeStyle;rounded=0;orthogonalLoop=1;jettySize=auto;html=1;" edge="1" parent="1" target="-JfjUyIMwX5SSRcEmjnT-9">
          <mxGeometry relative="1" as="geometry">
            <mxPoint x="395" y="650" as="sourcePoint" />
          </mxGeometry>
        </mxCell>
        <mxCell id="-JfjUyIMwX5SSRcEmjnT-8" style="edgeStyle=orthogonalEdgeStyle;rounded=0;orthogonalLoop=1;jettySize=auto;html=1;" edge="1" parent="1">
          <mxGeometry relative="1" as="geometry">
            <mxPoint x="470.59344828207213" y="715" as="sourcePoint" />
            <mxPoint x="470.59344828207213" y="735" as="targetPoint" />
          </mxGeometry>
        </mxCell>
        <mxCell id="-JfjUyIMwX5SSRcEmjnT-19" value="" style="edgeStyle=orthogonalEdgeStyle;rounded=0;orthogonalLoop=1;jettySize=auto;html=1;" edge="1" parent="1" source="-JfjUyIMwX5SSRcEmjnT-9" target="-JfjUyIMwX5SSRcEmjnT-10">
          <mxGeometry relative="1" as="geometry" />
        </mxCell>
        <mxCell id="-JfjUyIMwX5SSRcEmjnT-9" value="deploy" style="ellipse;whiteSpace=wrap;html=1;fontSize=20;" vertex="1" parent="1">
          <mxGeometry x="315" y="680" width="160" height="90" as="geometry" />
        </mxCell>
        <mxCell id="-JfjUyIMwX5SSRcEmjnT-22" value="" style="edgeStyle=orthogonalEdgeStyle;rounded=0;orthogonalLoop=1;jettySize=auto;html=1;" edge="1" parent="1" source="-JfjUyIMwX5SSRcEmjnT-10" target="-JfjUyIMwX5SSRcEmjnT-21">
          <mxGeometry relative="1" as="geometry" />
        </mxCell>
        <mxCell id="-JfjUyIMwX5SSRcEmjnT-10" value="operate" style="ellipse;whiteSpace=wrap;html=1;fontSize=22;" vertex="1" parent="1">
          <mxGeometry x="322.5" y="800" width="155" height="100" as="geometry" />
        </mxCell>
        <mxCell id="-JfjUyIMwX5SSRcEmjnT-17" value="" style="edgeStyle=orthogonalEdgeStyle;rounded=0;orthogonalLoop=1;jettySize=auto;html=1;" edge="1" parent="1" source="-JfjUyIMwX5SSRcEmjnT-16">
          <mxGeometry relative="1" as="geometry">
            <mxPoint x="395" y="550" as="targetPoint" />
          </mxGeometry>
        </mxCell>
        <mxCell id="-JfjUyIMwX5SSRcEmjnT-16" value="test mode" style="ellipse;whiteSpace=wrap;html=1;fontSize=19;" vertex="1" parent="1">
          <mxGeometry x="320" y="420" width="150" height="80" as="geometry" />
        </mxCell>
        <mxCell id="-JfjUyIMwX5SSRcEmjnT-20" value="release" style="ellipse;whiteSpace=wrap;html=1;fontSize=21;" vertex="1" parent="1">
          <mxGeometry x="320" y="550" width="140" height="90" as="geometry" />
        </mxCell>
        <mxCell id="-JfjUyIMwX5SSRcEmjnT-21" value="monitor" style="ellipse;whiteSpace=wrap;html=1;fontSize=20;" vertex="1" parent="1">
          <mxGeometry x="340" y="940" width="120" height="80" as="geometry" />
        </mxCell>
      </root>
    </mxGraphModel>
  </diagram>
</mxfile>
